<?xml version="1.0" standalone="no"?>
<!DOCTYPE svg PUBLIC "-//W3C//DTD SVG 20010904//EN"
 "http://www.w3.org/TR/2001/REC-SVG-20010904/DTD/svg10.dtd">
<svg version="1.0" xmlns="http://www.w3.org/2000/svg"
 width="1024.000000pt" height="1024.000000pt" viewBox="0 0 1024.000000 1024.000000"
 preserveAspectRatio="xMidYMid meet">
<g transform="translate(0.000000,1024.000000) scale(0.100000,-0.100000)" fill-opacity="0.4" stroke="none">
<path fill="#000000" d="M5085 7775 c-44 -12 -227 -98 -915 -432 -307 -149 -970 -465 -1110
-529 -170 -78 -203 -98 -235 -142 l-30 -44 -3 -339 -3 -340 30 -29 c45 -46
126 -37 150 17 7 16 11 125 11 323 0 165 2 300 4 300 2 0 51 -23 110 -51 l106
-51 0 -828 c0 -514 4 -838 10 -854 12 -32 65 -66 103 -66 16 0 38 10 52 25
l25 24 0 801 c0 633 3 800 13 800 6 0 62 -27 122 -59 l110 -58 7 -44 c3 -24 7
-106 7 -182 l1 -139 34 -34 c44 -44 86 -46 127 -5 l29 29 0 229 c-1 184 -3
232 -15 247 -8 11 -44 34 -81 51 l-65 31 333 162 c183 88 452 219 598 290 146
71 348 168 450 216 102 49 195 99 208 113 27 30 28 58 2 100 -21 34 -82 59
-116 47 -37 -13 -376 -175 -764 -364 -217 -106 -516 -250 -664 -321 l-268
-128 -120 60 c-66 33 -118 62 -115 65 6 7 566 279 747 364 179 84 456 217
1059 511 l114 55 86 -42 c204 -100 388 -184 404 -184 27 0 75 28 87 49 5 11
10 36 10 56 0 55 -33 79 -241 174 -304 140 -325 147 -404 126z"/>
<path fill="#000000" d="M5775 7224 c-143 -69 -314 -152 -380 -184 -66 -32 -277 -135 -470
-230 -192 -95 -436 -214 -541 -265 -116 -56 -197 -102 -208 -116 -9 -13 -16
-40 -16 -60 0 -30 7 -43 32 -64 49 -41 84 -32 328 88 118 57 350 171 515 252
165 81 329 160 365 177 157 73 611 293 668 325 90 50 108 83 77 142 -14 27
-68 61 -97 61 -8 0 -131 -57 -273 -126z"/>
<path fill="#000000" d="M6385 7159 c-51 -29 -72 -101 -41 -141 16 -21 112 -69 454 -224 144
-65 262 -121 262 -124 0 -3 -64 -37 -143 -76 l-142 -72 -50 26 c-53 27 -465
205 -704 303 -159 67 -179 68 -227 18 -36 -38 -38 -88 -4 -124 13 -14 27 -25
31 -25 7 0 111 -44 539 -230 91 -39 168 -75 172 -78 4 -4 -303 -164 -682 -354
l-690 -347 -122 61 c-68 34 -190 92 -273 129 -82 38 -151 72 -153 77 -1 5 210
113 470 241 274 136 483 245 500 261 39 39 37 73 -7 117 -59 59 -69 56 -570
-192 -495 -244 -642 -315 -656 -315 -6 0 -43 18 -83 40 -84 46 -123 50 -154
17 l-22 -23 0 -1543 0 -1544 21 -34 c37 -59 118 -83 152 -45 16 17 17 135 17
1491 0 943 3 1471 10 1469 5 -1 180 -88 390 -193 l380 -190 0 -432 c0 -238 -2
-433 -4 -433 -1 0 -66 30 -142 66 -393 187 -382 184 -428 138 -38 -39 -37
-106 3 -142 16 -15 170 -96 343 -180 l313 -153 105 57 c58 31 221 120 363 198
l257 140 0 389 0 388 -307 -155 c-168 -86 -308 -156 -310 -156 -2 0 -3 62 -3
138 l0 137 333 167 c182 92 639 323 1014 513 375 190 685 345 688 345 3 0 5
-58 5 -128 0 -110 -3 -131 -17 -144 -10 -8 -83 -50 -163 -93 -202 -109 -216
-120 -236 -170 -15 -41 -15 -46 2 -82 16 -33 24 -38 56 -41 31 -3 68 13 220
93 101 54 216 116 256 138 l73 41 -3 226 -3 227 -30 48 c-35 57 -24 51 -370
211 -400 185 -607 276 -639 280 -17 2 -40 -1 -51 -7z m-713 -2083 l-3 -174
-132 -70 c-149 -79 -274 -142 -282 -142 -3 0 -4 77 -3 171 l3 172 170 89 c94
49 186 97 205 108 19 10 37 19 40 20 3 0 4 -78 2 -174z"/>
<path fill="#000000" d="M5568 6354 c-205 -102 -385 -195 -400 -205 -81 -58 -42 -179 59 -179
16 0 195 84 423 198 367 184 396 201 413 234 16 33 17 40 3 72 -16 37 -59 66
-100 66 -14 0 -193 -84 -398 -186z"/>
<path fill="#000000" d="M6414 5871 c-109 -50 -285 -155 -314 -188 -28 -31 -31 -42 -27 -76 6
-46 41 -87 73 -87 30 0 102 32 233 103 57 32 108 57 112 57 5 0 9 -386 9 -858
l0 -859 -31 -62 c-17 -33 -45 -72 -62 -85 -18 -13 -124 -73 -237 -134 -388
-208 -866 -470 -961 -528 -31 -19 -68 -34 -81 -34 -14 0 -33 -9 -44 -21 -17
-19 -20 -42 -24 -204 l-5 -182 -80 44 c-187 104 -359 186 -388 186 -22 0 -38
-9 -60 -33 -24 -27 -28 -39 -24 -69 10 -62 32 -76 471 -303 142 -74 183 -82
264 -54 22 8 161 81 309 162 147 81 378 208 513 282 135 74 358 195 495 269
138 74 302 164 366 198 64 35 156 85 205 111 277 145 316 174 343 253 7 22 11
137 11 339 0 285 -1 304 -17 298 -19 -7 -402 -209 -489 -257 -72 -40 -89 -63
-89 -116 0 -35 5 -49 24 -64 48 -39 65 -36 195 31 66 35 133 71 149 82 l27 19
0 -139 0 -139 -137 -74 c-356 -189 -533 -285 -718 -386 -110 -60 -229 -126
-265 -145 -36 -19 -247 -135 -470 -256 -223 -122 -413 -224 -422 -228 -17 -6
-18 3 -18 109 0 80 4 118 13 125 6 5 62 36 122 69 61 33 261 143 445 245 184
101 385 210 445 242 136 72 220 122 263 155 45 36 109 129 135 198 22 58 22
60 25 933 2 616 0 890 -8 926 -13 60 -67 129 -117 150 -45 19 -110 17 -159 -5z"/>
<path fill="#000000" d="M7255 5779 c-299 -157 -331 -176 -355 -207 -45 -57 0 -152 72 -152
27 0 93 32 256 122 l52 29 0 -138 0 -138 -178 -92 c-182 -95 -212 -116 -232
-167 -21 -58 22 -126 80 -126 24 0 382 186 488 253 l42 27 0 350 c0 193 -3
350 -7 350 -5 0 -102 -50 -218 -111z"/>
<path fill="#000000" d="M2812 5607 l-22 -23 0 -923 c0 -1017 -3 -974 61 -1006 51 -27 92 -18
114 26 22 41 22 1832 1 1883 -28 66 -111 89 -154 43z"/>
<path fill="#000000" d="M3685 5555 c-79 -28 -134 -121 -119 -200 22 -118 148 -179 254 -123
101 54 121 191 41 282 -39 44 -116 62 -176 41z"/>
<path fill="#000000" d="M4577 5489 c-116 -19 -175 -166 -108 -270 52 -82 162 -107 241 -55
157 104 53 357 -133 325z"/>
<path fill="#000000" d="M6144 5222 c-42 -33 -44 -51 -44 -324 l0 -264 -172 -94 c-436 -236
-619 -336 -700 -382 l-87 -49 -60 31 c-33 16 -67 30 -75 30 -46 0 -96 -53 -96
-102 0 -70 122 -153 224 -152 49 0 145 40 251 104 17 10 176 97 355 193 452
243 451 243 491 286 19 22 41 56 49 78 18 51 27 541 10 595 -18 61 -99 89
-146 50z"/>
<path fill="#000000" d="M3675 4925 l-25 -24 0 -821 c0 -887 -2 -857 52 -894 42 -29 107 -13
127 31 8 17 11 264 11 844 l0 821 -34 34 c-43 43 -94 47 -131 9z"/>
<path fill="#000000" d="M7395 4853 c-196 -99 -393 -210 -417 -234 -21 -21 -28 -37 -28 -67 0
-22 3 -48 6 -57 9 -24 62 -48 90 -41 14 4 117 57 229 118 l205 111 0 103 c0
57 -3 104 -7 104 -5 -1 -39 -17 -78 -37z"/>
<path fill="#000000" d="M3199 4427 c-183 -123 -39 -397 164 -312 122 51 129 245 11 312 -54
31 -129 31 -175 0z"/>
<path fill="#000000" d="M4531 4433 c-92 -48 -127 -161 -79 -252 31 -60 66 -83 130 -88 65 -5
108 15 152 70 27 34 31 47 31 101 0 51 -5 70 -27 103 -45 68 -143 100 -207 66z"/>
<path fill="#000000" d="M6174 4121 c-34 -15 -64 -60 -64 -98 0 -82 117 -127 175 -68 71 70
-20 204 -111 166z"/>
<path fill="#000000" d="M5660 3901 c-58 -32 -196 -108 -308 -169 l-203 -112 -182 89 c-392
191 -385 188 -435 146 -43 -36 -45 -91 -4 -134 26 -28 587 -321 614 -321 24 0
662 356 696 388 52 49 43 125 -18 157 -16 8 -35 15 -42 15 -7 0 -60 -27 -118
-59z"/>
<path fill="#000000" d="M3263 3850 c-49 -20 -63 -65 -63 -195 0 -136 10 -182 44 -214 33 -31
100 -39 126 -16 19 17 20 31 20 196 0 170 -1 179 -22 203 -26 29 -72 40 -105
26z"/>
<path fill="#000000" d="M4488 3404 c-32 -17 -48 -43 -48 -79 0 -57 25 -81 160 -155 160 -88
188 -94 230 -52 44 44 42 99 -3 144 -33 32 -272 158 -299 158 -7 -1 -25 -7
-40 -16z"/>
</g>
</svg>
