<?xml version="1.0" standalone="no"?>
<!DOCTYPE svg PUBLIC "-//W3C//DTD SVG 20010904//EN"
 "http://www.w3.org/TR/2001/REC-SVG-20010904/DTD/svg10.dtd">
<svg version="1.0" xmlns="http://www.w3.org/2000/svg"
 width="1024.000000pt" height="1024.000000pt" viewBox="0 0 1024.000000 1024.000000"
 preserveAspectRatio="xMidYMid meet">

  <defs>
    <linearGradient id="customGradient" gradientUnits="userSpaceOnUse"
      x1="0" y1="0" x2="10240" y2="10240">
      <stop offset="0%" style="stop-color:#d16ba5" /> 
      <stop offset="50%" style="stop-color:#face9b" /> 
      <stop offset="100%" style="stop-color:#5ffbf1" /> 
    </linearGradient>
  </defs>

<g transform="translate(0.000000,1024.000000) scale(0.100000,-0.100000)"
  fill="url(#customGradient)" stroke="none" fill-opacity="0.8">
<path d="M4820 8733 c-569 -57 -1083 -218 -1550 -486 -385 -220 -851 -628
-1109 -971 -70 -92 -201 -291 -201 -303 0 -6 39 -13 87 -16 101 -7 217 -41
309 -92 l62 -33 23 36 c26 40 58 52 78 29 9 -12 7 -25 -11 -61 l-22 -47 60
-59 61 -60 35 53 c20 28 53 72 75 96 31 35 43 42 61 37 12 -4 22 -12 22 -19 0
-6 -34 -61 -75 -122 l-74 -111 44 -84 c24 -47 52 -113 61 -147 9 -35 20 -63
24 -63 3 0 20 28 36 62 79 167 310 475 480 639 237 228 434 373 688 504 249
129 500 211 787 257 206 32 545 32 734 -1 566 -98 1063 -365 1465 -788 191
-202 324 -394 460 -665 l79 -158 10 38 c29 109 81 328 81 343 0 30 -47 123
-109 214 -65 95 -69 106 -47 124 23 19 41 3 111 -100 38 -54 72 -96 76 -92 4
5 17 52 29 105 l21 97 -62 83 c-215 285 -505 561 -782 743 -83 54 -117 82
-113 92 3 8 6 17 6 19 0 2 11 4 23 4 30 0 113 -53 287 -183 158 -118 440 -394
569 -557 46 -58 85 -106 86 -108 2 -2 12 16 24 40 11 24 37 54 58 68 35 24 44
25 226 30 l189 5 -59 80 c-195 263 -474 548 -745 762 -90 72 -360 251 -473
315 -434 246 -946 400 -1485 448 -106 9 -529 11 -610 3z m335 -264 c0 -21 -4
-24 -40 -24 -31 0 -41 4 -43 19 -6 27 23 46 56 37 20 -6 27 -14 27 -32z m-250
-9 c0 -31 -12 -35 -192 -55 -207 -23 -435 -76 -688 -160 -151 -49 -170 -53
-179 -29 -12 32 8 43 199 105 277 91 659 169 815 165 41 -1 45 -3 45 -26z
m618 15 c73 -9 159 -21 192 -28 54 -11 60 -14 60 -37 0 -23 -3 -25 -45 -23
-97 4 -393 42 -402 51 -6 6 -7 19 -3 31 8 26 22 26 198 6z m843 -201 c317
-127 629 -307 884 -513 141 -113 373 -344 368 -367 -8 -46 -42 -25 -183 114
-148 146 -269 247 -425 354 -186 128 -429 257 -640 340 -140 55 -160 69 -140
92 18 23 36 20 136 -20z m-974 -2 c84 -8 122 -28 100 -55 -10 -11 -53 -13
-240 -9 -250 5 -453 -7 -656 -39 -94 -15 -131 -18 -139 -10 -19 19 5 44 52 58
158 46 648 76 883 55z m410 -58 c20 -6 29 -27 18 -44 -17 -27 -130 -7 -130 23
0 35 39 42 112 21z m-2123 -73 c8 -14 6 -22 -7 -34 -30 -27 -244 -128 -258
-123 -23 9 -16 43 14 65 37 26 212 111 228 111 8 0 18 -8 23 -19z m2536 -41
c164 -61 300 -121 326 -144 23 -20 14 -46 -16 -46 -13 0 -61 18 -108 41 -47
22 -161 67 -253 99 -160 55 -169 59 -172 85 -4 27 -3 28 40 23 24 -3 106 -29
183 -58z m-1977 23 c4 -26 12 -22 -183 -93 -325 -119 -691 -326 -935 -529
-179 -149 -189 -156 -207 -139 -20 20 -11 33 73 110 135 123 341 270 519 370
213 121 384 198 650 295 47 18 79 12 83 -14z m1122 -71 c40 -6 45 -10 45 -32
l0 -25 -235 -6 c-260 -7 -326 -12 -510 -39 -68 -10 -128 -16 -132 -14 -12 8
-9 40 5 52 23 19 279 58 432 65 121 6 351 5 395 -1z m431 -56 c169 -40 361
-101 391 -126 26 -20 18 -50 -12 -50 -12 0 -65 16 -120 34 -93 33 -339 97
-423 111 -39 6 -54 23 -43 50 8 22 45 19 207 -19z m-1527 -81 c11 -29 -6 -43
-97 -78 -129 -49 -132 -49 -146 -33 -24 28 4 52 106 89 111 40 128 43 137 22z
m-1020 -14 c13 -20 -11 -44 -127 -130 -67 -49 -147 -111 -177 -137 -70 -61
-385 -377 -471 -472 -48 -53 -70 -71 -82 -66 -10 3 -17 14 -17 24 0 31 119
167 311 356 191 187 269 254 428 367 88 64 123 78 135 58z m584 -178 c3 -17
-7 -28 -45 -49 -26 -15 -103 -60 -170 -101 -67 -40 -128 -73 -136 -73 -8 0
-20 7 -27 15 -21 26 16 53 280 203 63 36 94 37 98 5z m2761 -24 c214 -128 400
-272 587 -453 74 -72 134 -139 134 -148 0 -9 -9 -20 -21 -23 -16 -6 -46 18
-157 127 -189 185 -385 333 -606 459 -46 26 -76 49 -76 59 0 45 37 40 139 -21z
m-3215 -225 c30 -11 17 -42 -31 -75 -67 -46 -172 -138 -305 -267 -114 -110
-153 -134 -153 -90 0 27 107 140 262 276 185 161 195 168 227 156z m-526 -206
c3 -15 -161 -201 -195 -221 -21 -13 -43 -1 -43 23 0 31 188 222 214 218 12 -2
22 -10 24 -20z"/>
<path d="M7090 8616 c-19 -23 -8 -61 18 -64 46 -7 72 47 33 68 -26 14 -36 13
-51 -4z"/>
<path d="M2586 8515 c-38 -38 -8 -67 65 -63 59 3 82 24 63 56 -15 24 -105 29
-128 7z"/>
<path d="M7608 8499 c-21 -12 -24 -62 -5 -76 29 -23 48 -23 72 2 47 46 -10
108 -67 74z"/>
<path d="M8103 8292 c-7 -4 -17 -30 -23 -57 -14 -64 -32 -83 -86 -91 -75 -11
-87 -58 -17 -69 68 -10 86 -25 103 -85 14 -47 19 -55 40 -55 20 0 26 8 36 50
15 58 38 80 92 89 22 3 42 13 46 21 8 22 -4 45 -23 45 -9 0 -33 5 -54 11 -30
8 -42 18 -53 44 -8 19 -14 46 -14 59 0 27 -28 49 -47 38z"/>
<path d="M2127 8142 c-22 -24 -21 -35 1 -55 15 -13 39 -17 114 -17 108 0 124
4 139 32 8 15 7 24 -7 39 -15 16 -31 19 -124 19 -91 0 -109 -3 -123 -18z"/>
<path d="M1831 7856 c-54 -30 -67 -106 -26 -154 64 -77 175 -33 175 68 0 42
-15 67 -50 85 -35 18 -67 19 -99 1z"/>
<path d="M8382 7654 c-47 -32 -15 -124 44 -124 29 0 62 29 70 62 4 21 0 33
-20 52 -29 30 -62 33 -94 10z"/>
<path d="M4917 7268 c-197 -347 -237 -421 -237 -435 0 -4 70 -84 155 -178
l155 -170 0 -279 -1 -279 63 -64 c34 -34 65 -63 68 -63 3 0 33 26 68 58 l62
57 0 285 0 285 97 110 c53 61 122 139 155 174 62 68 66 76 44 106 -7 11 -82
142 -166 290 -187 333 -253 445 -262 445 -4 0 -94 -154 -201 -342z m267 -301
c64 -89 66 -72 -22 -172 -36 -41 -45 -46 -56 -34 -7 8 -35 38 -61 67 l-48 53
58 85 c32 46 62 83 66 82 4 -2 32 -38 63 -81z"/>
<path d="M1496 7428 c-20 -28 -20 -33 0 -52 10 -10 33 -16 64 -16 42 0 52 4
66 25 16 24 16 27 -1 45 -27 30 -108 28 -129 -2z"/>
<path d="M8691 7436 c-7 -8 -11 -27 -9 -43 3 -26 6 -28 57 -31 58 -3 71 5 71
46 0 37 -93 59 -119 28z"/>
<path d="M1325 7050 c-15 -17 -16 -24 -7 -45 16 -35 58 -34 74 1 11 23 10 29
-11 45 -29 24 -34 24 -56 -1z"/>
<path d="M7848 7003 c-26 -7 -45 -58 -82 -229 -76 -350 -141 -631 -203 -879
-142 -568 -154 -625 -138 -655 20 -39 56 -65 123 -90 108 -41 335 -90 417 -90
64 0 71 -10 44 -61 -54 -103 -19 -242 86 -344 l55 -54 -522 -3 c-514 -3 -524
-3 -563 -25 -22 -11 -52 -34 -67 -50 -61 -64 -58 -17 -58 -1008 l0 -905 -32 0
c-43 0 -53 -8 -71 -50 -14 -31 -15 150 -16 1817 l-1 1853 138 -113 c153 -126
192 -154 192 -138 0 6 -21 54 -46 108 -25 53 -101 217 -169 363 -140 302 -230
486 -244 494 -9 6 -179 -329 -289 -569 -33 -71 -90 -192 -126 -268 -36 -76
-66 -143 -66 -149 0 -13 53 26 150 112 41 36 103 90 138 119 l62 53 0 -894 0
-893 -36 43 c-21 25 -63 56 -98 74 -59 30 -66 32 -191 32 l-130 1 0 751 0 750
50 50 c66 64 95 124 95 196 0 71 -14 113 -58 167 -47 58 -123 93 -202 93 -168
0 -292 -176 -236 -335 l14 -38 -146 -132 c-81 -73 -200 -181 -265 -242 -66
-60 -145 -133 -176 -162 l-58 -52 -70 62 c-111 98 -547 502 -562 521 -12 14
-12 23 -3 50 28 77 4 186 -56 249 -15 16 -49 41 -77 55 -173 91 -380 -51 -362
-248 6 -74 43 -141 98 -177 l39 -26 0 -762 0 -763 -127 -4 c-112 -3 -135 -7
-185 -30 -52 -24 -138 -98 -138 -120 0 -5 -5 -6 -10 -3 -6 4 -10 177 -10 486
l0 481 45 51 c94 107 99 237 13 341 -63 77 -202 110 -296 71 -49 -21 -110 -80
-133 -130 -45 -98 -10 -247 72 -304 l38 -26 1 -1407 0 -1408 -55 0 -55 0 -1
78 c-1 42 -2 453 -3 912 -2 788 -3 837 -20 873 -24 48 -85 100 -135 115 -26 8
-164 12 -440 12 -236 0 -401 4 -401 9 0 10 55 55 100 82 73 45 112 53 290 58
201 7 209 12 121 73 -86 60 -165 81 -280 76 -80 -4 -107 -10 -164 -36 -81 -37
-173 -121 -223 -204 -28 -45 -41 -58 -60 -58 l-24 0 0 164 0 164 68 7 c158 15
330 79 455 169 75 53 190 172 245 253 22 33 82 133 133 224 50 90 118 203 150
251 33 48 59 90 59 93 0 10 -116 5 -208 -10 -116 -19 -208 -51 -327 -113 l-93
-49 29 46 c104 164 118 454 29 632 -124 251 -342 392 -610 393 -190 0 -347
-65 -488 -204 -168 -167 -236 -398 -186 -637 20 -99 58 -181 122 -265 28 -38
49 -68 46 -68 -3 0 -21 8 -42 19 -48 25 -155 57 -229 70 -82 14 -300 24 -306
14 -3 -5 15 -40 41 -78 25 -39 82 -126 125 -195 135 -214 214 -307 325 -382
144 -97 293 -151 453 -164 l79 -7 -2 -161 c-3 -156 -4 -161 -24 -164 -17 -2
-28 9 -52 50 -37 66 -132 158 -198 191 -166 84 -371 73 -488 -26 -28 -24 -37
-39 -33 -50 6 -15 25 -17 150 -17 149 0 210 -11 289 -51 42 -21 108 -76 108
-90 0 -4 -191 -10 -423 -11 l-424 -3 -41 -29 c-59 -41 -97 -119 -89 -186 13
-110 88 -184 198 -197 l49 -6 1 -86 c0 -81 5 -130 13 -138 2 -2 121 -6 264
-10 204 -4 265 -3 277 7 12 10 15 36 15 126 l0 113 427 1 c236 0 528 -2 651
-6 l222 -7 0 -64 0 -63 -183 0 c-129 0 -187 -4 -195 -12 -18 -18 -14 -56 7
-68 12 -6 94 -10 196 -10 l176 0 -3 -62 -3 -63 -927 -3 -926 -2 -7 -83 c-3
-45 -5 -156 -3 -247 l3 -165 658 -5 c570 -4 659 -7 667 -20 19 -30 8 -54 -33
-69 -19 -7 -239 -11 -663 -11 l-634 0 0 -73 c0 -41 3 -108 6 -151 l7 -76 575
2 c535 3 576 4 586 21 8 12 8 22 0 35 -10 16 -47 18 -444 24 -387 6 -434 9
-451 24 -26 23 -24 46 7 75 l26 24 596 -2 c328 0 679 -1 780 -2 l182 -1 0
-250 0 -250 -865 0 -865 0 0 55 0 55 778 0 c742 0 780 1 795 18 22 24 21 35
-1 56 -17 15 -88 16 -863 14 l-844 -3 -3 -138 -3 -138 30 -29 29 -30 171 0
c94 0 171 -2 171 -5 0 -2 -16 -34 -36 -69 l-36 -65 -151 -3 -151 -3 -16 -28
c-14 -27 -14 -29 9 -48 23 -19 81 -19 4170 -19 2280 0 4156 3 4169 6 30 8 40
49 17 74 -15 17 -34 20 -129 22 l-111 3 -32 60 c-18 33 -33 63 -33 68 0 4 57
7 126 7 125 0 156 7 181 39 9 12 12 105 13 359 l0 342 -690 0 c-677 0 -690 0
-710 20 -25 25 -25 42 -2 63 17 16 81 17 710 17 l692 0 2 427 3 427 35 3 c98
7 152 40 189 116 45 92 20 195 -62 261 l-39 31 -366 3 c-202 1 -373 5 -381 8
-11 3 -2 18 31 52 67 68 92 123 96 207 3 63 1 76 -27 129 -17 32 -31 59 -31
61 0 1 41 5 91 8 104 8 268 39 348 67 76 27 129 65 148 106 19 39 34 -40 -128
679 -44 198 -98 441 -119 540 -92 428 -113 510 -133 533 l-20 22 -551 -1
c-303 -1 -558 -3 -568 -6z m176 -138 c13 -13 8 -38 -40 -222 -30 -115 -79
-302 -109 -416 -29 -115 -59 -215 -66 -223 -13 -15 -65 -19 -73 -5 -3 5 29
143 70 307 42 165 91 355 108 424 27 107 35 126 56 137 32 16 35 16 54 -2z
m566 -6 c0 -6 -50 -100 -112 -208 -105 -184 -275 -488 -554 -991 -66 -118
-125 -228 -132 -244 -12 -28 -12 -28 13 -22 25 6 244 25 297 26 22 0 32 11 66
73 75 138 669 1202 690 1236 19 31 22 33 27 15 4 -10 15 -41 26 -68 10 -27 19
-57 19 -67 0 -18 -117 -245 -439 -849 -135 -254 -171 -323 -171 -335 0 -3 14
-5 30 -5 34 0 37 -9 13 -39 -16 -19 -30 -21 -148 -23 -127 -3 -129 -3 -144
-29 -23 -42 -8 -76 48 -103 35 -17 53 -20 66 -14 17 10 290 5 333 -5 13 -3 34
-2 48 3 21 9 23 8 16 -8 -5 -9 -9 -31 -7 -49 1 -18 -1 -31 -4 -30 -3 1 -6 -2
-6 -8 0 -5 3 -9 8 -7 4 1 7 -2 7 -8 0 -16 -18 -11 -38 10 -18 20 -20 20 -33 3
-12 -16 -12 -17 1 -7 12 8 22 3 47 -22 30 -32 31 -33 12 -50 -26 -23 -24 -37
4 -29 17 5 19 4 7 -4 -8 -6 -31 -10 -50 -10 -69 3 -255 -14 -267 -24 -7 -5
-13 -31 -13 -59 0 -47 3 -52 56 -103 57 -54 65 -78 32 -99 -37 -23 -138 51
-174 129 -30 64 -30 91 2 166 17 43 24 75 22 107 l-3 46 -135 17 c-177 22
-295 45 -389 74 -125 40 -153 73 -85 101 26 11 41 26 55 59 11 24 84 167 163
317 78 150 185 354 236 453 51 99 115 220 143 270 120 216 220 391 235 408 12
14 32 17 99 17 55 0 83 -4 83 -11z m-6450 -213 c70 -24 173 -90 222 -142 44
-47 97 -144 120 -217 17 -57 20 -87 16 -175 -4 -91 -9 -118 -35 -179 -76 -179
-193 -285 -364 -327 -305 -75 -613 139 -658 460 -23 161 35 323 162 448 82 82
145 118 249 146 91 25 191 20 288 -14z m2736 -1180 c-2 -115 63 -198 181 -232
90 -26 183 3 246 76 40 48 62 114 54 170 -3 22 0 45 7 53 24 30 477 441 480
435 0 -2 0 -310 -2 -685 l-2 -683 -295 0 -295 0 0 271 0 272 -32 -7 c-74 -16
-126 -16 -175 -3 l-53 14 -2 -271 -3 -271 -294 -3 c-162 -1 -298 1 -303 6 -4
4 -5 314 -1 689 l6 680 242 -224 243 -225 -2 -62z m-2056 209 c0 -3 -14 -34
-31 -68 -44 -87 -114 -193 -166 -252 -60 -68 -155 -146 -170 -140 -7 2 -13 -2
-13 -10 0 -8 -4 -15 -10 -15 -5 0 -10 5 -10 11 0 5 -4 8 -10 4 -5 -3 -6 -13
-3 -23 3 -9 3 -14 -2 -10 -4 4 -15 2 -23 -5 -12 -9 -16 -9 -19 1 -3 6 -11 12
-19 12 -11 0 -12 4 -5 18 9 16 6 18 -20 17 -16 -1 -29 2 -29 7 0 5 -4 7 -10 3
-5 -3 -7 -12 -3 -20 3 -8 0 -15 -7 -15 -6 0 -9 4 -6 9 9 14 -20 32 -40 24 -18
-6 -18 -6 0 15 11 12 15 22 10 22 -5 0 -2 5 6 10 8 5 24 7 35 4 11 -3 16 -2
10 3 -23 18 -11 37 67 114 127 123 240 199 398 265 57 24 70 28 70 19z m-1535
-132 c183 -57 360 -188 489 -363 75 -101 75 -102 24 -94 -153 23 -291 95 -403
208 -73 75 -185 219 -200 258 -7 19 3 17 90 -9z m640 -100 c61 -3 135 -1 165
5 30 6 56 10 57 9 1 -1 -23 -42 -53 -92 -48 -81 -54 -87 -54 -58 0 17 -3 39
-6 48 -8 21 -45 35 -73 28 -19 -5 -21 -13 -21 -76 l0 -71 -51 75 c-28 41 -64
88 -80 104 -33 35 -37 51 -11 40 9 -4 67 -9 127 -12z m6950 -33 c192 -18 375
-64 375 -95 0 -37 -105 -81 -260 -111 -128 -24 -330 -42 -330 -30 0 18 13 30
55 51 22 11 46 33 53 49 13 25 12 31 -5 55 -19 25 -25 26 -132 31 -112 5 -130
12 -131 48 0 15 214 17 375 2z m-6630 -221 c4 -11 4 -23 1 -26 -3 -4 -6 1 -6
10 0 10 -4 17 -10 17 -5 0 -10 5 -10 10 0 18 19 10 25 -11z m-35 -5 c0 -8 -4
-12 -10 -9 -5 3 -10 10 -10 16 0 5 5 9 10 9 6 0 10 -7 10 -16z m110 7 c0 -6
-4 -13 -10 -16 -5 -3 -10 1 -10 9 0 9 5 16 10 16 6 0 10 -4 10 -9z m-30 -26
c0 -8 -7 -15 -16 -15 -14 0 -14 3 -4 15 7 8 14 15 16 15 2 0 4 -7 4 -15z
m-103 -10 c0 -8 -4 -12 -9 -9 -5 3 -6 10 -3 15 9 13 12 11 12 -6z m63 -21 c0
-3 -7 -1 -15 6 -8 7 -15 17 -15 22 0 5 7 3 15 -6 8 -8 15 -18 15 -22z m95 27
c3 -5 1 -12 -5 -16 -5 -3 -10 1 -10 9 0 18 6 21 15 7z m-30 -11 c3 -5 1 -10
-4 -10 -6 0 -11 5 -11 10 0 6 2 10 4 10 3 0 8 -4 11 -10z m-35 -20 c0 -5 -5
-10 -11 -10 -5 0 -7 5 -4 10 3 6 8 10 11 10 2 0 4 -4 4 -10z m-65 -20 c3 -5 1
-10 -4 -10 -6 0 -11 5 -11 10 0 6 2 10 4 10 3 0 8 -4 11 -10z m842 -659 c43
-20 73 -62 73 -101 l0 -20 -1099 0 c-1095 0 -1143 1 -1163 33 -19 29 -8 67 25
87 31 20 53 20 1077 20 1005 0 1047 -1 1087 -19z m3263 0 c34 -18 90 -72 90
-87 0 -7 -31 -14 -85 -18 -115 -10 -2479 -6 -2495 4 -34 21 54 97 127 110 26
4 563 7 1193 6 949 -1 1149 -3 1170 -15z m3064 -2 c26 -20 34 -60 18 -86 -20
-32 -68 -33 -1188 -33 l-1125 0 7 23 c15 50 35 76 76 96 l43 21 1071 0 c1069
0 1071 0 1098 -21z m-2960 -283 c19 -14 43 -44 55 -67 l22 -42 -20 -18 c-25
-23 -28 -23 -34 -1 -4 15 -5 15 -6 0 0 -9 6 -23 14 -32 19 -18 19 -26 1 -26
-8 0 -17 -13 -21 -30 -4 -16 -11 -30 -16 -30 -5 0 -9 -4 -9 -9 0 -22 -48 -61
-66 -55 -18 5 -17 4 1 -11 18 -14 21 -14 32 1 7 10 16 14 20 11 4 -4 2 -12 -4
-18 -6 -6 -9 -18 -6 -25 3 -8 0 -14 -6 -14 -6 0 -11 6 -12 13 0 6 -5 -1 -10
-18 -5 -18 -5 -33 1 -39 7 -7 10 -4 10 7 0 9 5 17 10 17 16 0 12 -15 -10 -35
-11 -10 -17 -21 -15 -26 6 -9 -14 -23 -22 -15 -3 3 0 12 7 21 7 9 10 18 6 22
-3 4 -13 -2 -21 -13 -14 -18 -14 -17 -16 11 l-1 30 -9 -32 c-5 -18 -14 -33
-20 -33 -6 0 -7 -4 -4 -10 3 -5 1 -10 -5 -10 -6 0 -13 7 -16 15 -6 14 -8 14
-18 1 -10 -14 -152 -15 -1205 -13 -915 1 -1195 5 -1198 14 -3 7 -11 9 -19 6
-10 -4 -12 0 -7 12 5 15 2 17 -15 13 -15 -4 -22 -2 -22 9 0 8 5 11 10 8 6 -3
10 -1 10 4 0 6 9 11 20 11 11 0 20 4 20 10 0 6 -9 6 -26 0 -33 -13 -34 -13
-34 6 0 11 -6 14 -21 9 -14 -5 -25 -2 -30 6 -12 19 -11 29 2 29 5 0 8 -4 4 -9
-3 -5 0 -13 6 -17 9 -5 10 1 5 20 -5 19 -3 26 9 26 8 0 15 5 15 10 0 7 -6 7
-19 0 -23 -12 -39 4 -16 17 12 7 11 10 -5 21 -11 7 -20 8 -20 3 0 -5 6 -12 13
-14 7 -3 4 -6 -7 -6 -14 -1 -17 4 -13 19 3 11 1 20 -4 20 -17 0 -9 28 14 44
12 9 16 15 8 13 -8 -1 -14 10 -17 31 -5 39 22 95 63 134 64 61 -21 57 1366 53
l1268 -3 33 -26z m-3374 -761 l0 -785 -45 0 -45 0 0 785 0 785 45 0 45 0 0
-785z m4280 -1 l0 -785 -37 3 -38 3 -3 770 c-1 424 0 776 3 783 2 6 20 12 40
12 l35 0 0 -786z m249 780 c31 -6 31 -7 31 -71 0 -74 -5 -78 -83 -69 l-52 7 3
69 4 70 33 0 c18 0 47 -3 64 -6z m1619 -169 l2 -170 -452 3 c-442 3 -453 4
-470 24 -23 26 -22 34 2 58 19 19 33 20 370 20 l350 0 15 24 c19 28 10 54 -22
67 -14 5 -260 9 -570 9 -635 0 -622 -2 -613 85 5 51 -6 51 860 50 l525 0 3
-170z m-7998 135 c22 -22 26 -60 8 -78 -16 -16 -100 -16 -116 0 -15 15 -15 38
-2 72 8 22 16 26 50 26 27 0 47 -7 60 -20z m5320 -116 c0 -7 -27 -34 -34 -34
-12 0 -6 28 7 33 17 8 27 8 27 1z m-4 -61 c-10 -10 -19 5 -10 18 6 11 8 11 12
0 2 -7 1 -15 -2 -18z m-19 -18 c24 -25 7 -30 -18 -6 -13 12 -17 21 -10 21 7 0
19 -7 28 -15z m-15 -36 c33 -34 33 -50 0 -19 -25 24 -42 26 -42 5 0 -8 -5 -15
-12 -15 -6 0 -5 -7 5 -18 13 -14 14 -21 5 -30 -9 -9 -6 -18 12 -37 13 -14 18
-25 12 -25 -7 0 -12 5 -12 10 0 6 -7 10 -16 10 -8 0 -12 5 -9 10 3 6 -2 10
-12 10 -17 1 -17 1 0 14 21 16 23 38 2 30 -20 -8 -18 6 5 36 11 14 20 31 20
38 0 19 10 15 42 -19z m1206 3 c16 -21 15 -29 -8 -52 -17 -17 -33 -20 -110
-20 l-90 0 0 50 0 49 98 -5 c71 -5 100 -11 110 -22z m-1212 -47 c17 -16 14
-18 -10 -9 -9 3 -16 10 -16 15 0 13 9 11 26 -6z m-6 -45 c0 -5 -4 -10 -10 -10
-5 0 -10 5 -10 10 0 6 5 10 10 10 6 0 10 -4 10 -10z m-55 -39 c3 -5 1 -12 -5
-16 -5 -3 -10 1 -10 9 0 18 6 21 15 7z m2783 -108 l-3 -58 -785 -2 c-737 -3
-786 -4 -798 -20 -7 -10 -12 -29 -10 -43 3 -24 6 -25 88 -30 96 -6 110 -11
110 -45 0 -39 -35 -55 -117 -55 l-73 0 -1 -85 c-1 -47 -2 -91 -3 -97 -1 -9
-21 -13 -66 -13 l-65 0 -3 230 c-1 127 0 240 3 253 l5 22 861 0 860 0 -3 -57z
m-7734 31 c21 -21 20 -40 -4 -64 -18 -18 -33 -20 -188 -20 -117 0 -172 4 -180
12 -13 13 -17 70 -5 81 3 4 86 7 184 7 148 0 180 -3 193 -16z m1346 -134 l0
-150 -767 1 c-568 0 -777 3 -803 12 -29 10 -36 18 -38 44 -6 66 -37 63 754 63
392 0 719 3 728 6 13 5 16 22 16 83 0 43 3 81 7 84 3 4 28 7 55 7 l48 0 0
-150z m3580 146 c0 -3 -4 -8 -10 -11 -5 -3 -10 -1 -10 4 0 6 5 11 10 11 6 0
10 -2 10 -4z m2 -225 c20 -14 34 -31 31 -38 -3 -8 2 -13 13 -13 14 0 15 -3 6
-12 -7 -7 -12 -17 -12 -23 0 -5 4 -4 9 4 5 7 14 10 20 7 16 -11 13 -26 -5 -26
-14 0 -15 -7 -10 -40 5 -34 4 -40 -11 -40 -17 -1 -17 -1 0 -14 11 -9 14 -17 8
-20 -6 -4 -17 7 -26 24 -8 16 -18 30 -20 30 -9 0 0 -45 13 -58 14 -16 16 -42
2 -42 -5 0 -7 -6 -4 -14 3 -8 0 -17 -7 -22 -9 -5 -10 -2 -6 9 3 9 2 19 -3 22
-16 10 -11 25 5 19 8 -4 15 -1 15 5 0 6 -6 11 -14 11 -8 0 -16 6 -19 13 -2 6
-8 8 -13 4 -5 -4 -3 -11 4 -16 12 -7 -9 -31 -39 -45 -8 -3 1 -3 20 0 37 7 36
-11 -1 -25 -19 -7 -19 -9 -4 -23 18 -19 21 -38 6 -38 -5 0 -10 7 -10 15 0 8
-4 15 -10 15 -5 0 -10 7 -10 15 0 8 -5 15 -10 15 -6 0 -9 -3 -9 -7 3 -20 -3
-29 -31 -41 -17 -8 -27 -18 -24 -24 4 -6 9 -7 13 -1 10 16 51 34 61 28 13 -8
2 -27 -13 -22 -17 5 -47 -32 -40 -49 3 -8 9 -14 14 -14 5 0 9 -5 9 -10 0 -14
-123 -10 -132 4 -5 7 -8 3 -8 -9 0 -17 -2 -17 -10 -5 -7 10 -10 11 -10 2 0
-10 -215 -12 -1060 -12 -687 0 -1060 4 -1060 10 0 6 -5 10 -11 10 -5 0 -7 -4
-4 -10 4 -6 -5 -9 -19 -8 -15 1 -26 8 -26 15 0 7 -4 13 -10 13 -5 0 -10 -7
-10 -15 0 -8 -4 -15 -10 -15 -5 0 -10 9 -10 20 0 11 5 20 10 20 6 0 10 8 10
17 0 14 -3 14 -20 -5 -11 -12 -20 -28 -20 -37 0 -8 -4 -15 -10 -15 -5 0 -10 7
-10 16 0 10 -6 14 -15 10 -8 -3 -15 0 -15 6 0 6 -7 16 -16 22 -23 18 -9 89 16
81 10 -3 21 -2 24 3 3 5 -7 9 -22 8 -15 -1 -33 7 -40 17 -15 19 -32 23 -32 6
0 -5 3 -8 8 -5 4 2 12 -6 19 -19 8 -19 8 -28 -3 -42 -12 -17 -14 -17 -30 -1
-14 14 -15 20 -6 30 9 9 12 8 12 -4 0 -9 5 -20 10 -23 6 -3 10 0 10 8 0 12
-10 27 -51 75 -6 7 -8 16 -5 20 4 3 -6 11 -21 18 -27 12 -28 13 -3 10 14 -1
29 -12 35 -24 5 -12 13 -22 18 -22 11 0 -3 43 -16 52 -7 4 -5 15 6 32 23 35
21 44 -3 16 -21 -25 -41 -21 -21 4 10 12 9 20 -4 40 -16 23 -16 26 -1 26 10 0
13 6 10 15 -4 8 -1 15 6 15 6 0 9 4 6 9 -8 12 70 79 98 84 11 3 582 4 1267 3
l1245 -1 36 -24z m2806 -3 c2 -18 -4 -31 -20 -42 -19 -14 -66 -16 -350 -16
-188 0 -338 4 -352 10 -31 11 -36 53 -8 69 11 7 143 10 372 8 l355 -2 3 -27z
m-2718 -118 c0 -5 -4 -10 -10 -10 -5 0 -10 5 -10 10 0 6 5 10 10 10 6 0 10 -4
10 -10z m184 -16 c14 -14 16 -74 16 -515 l0 -499 -35 0 -35 0 0 508 c0 280 3
512 7 515 11 12 31 8 47 -9z m-2939 -14 c3 -5 -1 -10 -10 -10 -9 0 -13 5 -10
10 3 6 8 10 10 10 2 0 7 -4 10 -10z m2765 -6 c0 -2 -7 -4 -15 -4 -8 0 -15 4
-15 10 0 5 7 7 15 4 8 -4 15 -8 15 -10z m-3682 -61 l-3 -48 -54 -3 c-70 -4
-98 3 -111 29 -9 16 -8 26 5 45 14 22 22 24 91 24 l75 0 -3 -47z m3692 33 c0
-2 -9 -6 -20 -9 -11 -3 -20 -1 -20 4 0 5 9 9 20 9 11 0 20 -2 20 -4z m-10 -36
c0 -5 -4 -10 -10 -10 -5 0 -10 5 -10 10 0 6 5 10 10 10 6 0 10 -4 10 -10z
m-30 -10 c0 -5 -7 -10 -16 -10 -8 0 -12 5 -9 10 3 6 10 10 16 10 5 0 9 -4 9
-10z m-2752 -35 c-3 -3 -9 2 -12 12 -6 14 -5 15 5 6 7 -7 10 -15 7 -18z m2752
1 c0 -3 -4 -8 -10 -11 -5 -3 -10 -1 -10 4 0 6 5 11 10 11 6 0 10 -2 10 -4z
m-75 -46 c3 -5 -1 -10 -10 -10 -9 0 -13 5 -10 10 3 6 8 10 10 10 2 0 7 -4 10
-10z m30 -10 c3 -5 1 -10 -4 -10 -6 0 -11 5 -11 10 0 6 2 10 4 10 3 0 8 -4 11
-10z m-2675 -10 c0 -5 -5 -10 -11 -10 -5 0 -7 5 -4 10 3 6 8 10 11 10 2 0 4
-4 4 -10z m2705 0 c3 -5 1 -10 -4 -10 -6 0 -11 5 -11 10 0 6 2 10 4 10 3 0 8
-4 11 -10z m-50 -10 c3 -5 -1 -10 -10 -10 -9 0 -13 5 -10 10 3 6 8 10 10 10 2
0 7 -4 10 -10z m1981 -54 c19 -27 18 -52 -6 -76 -19 -19 -33 -20 -389 -20
l-368 0 -6 -117 c-3 -65 -2 -121 2 -126 4 -4 364 -10 799 -14 l793 -6 -3 -56
-3 -56 -860 0 -860 0 -3 235 c-1 129 0 240 3 248 4 10 91 12 446 10 423 -3
441 -4 455 -22z m822 -28 l3 -48 -83 0 c-116 0 -157 31 -108 80 18 18 31 20
103 18 l82 -3 3 -47z m-2844 26 c9 -24 7 -27 -9 -10 -17 17 -19 26 -6 26 5 0
12 -7 15 -16z m-38 -8 c8 -8 14 -23 13 -33 0 -15 -2 -14 -11 5 -6 12 -17 22
-25 22 -7 0 -13 5 -13 10 0 15 19 12 36 -4z m2884 -206 l0 -50 -177 0 c-186 0
-224 8 -231 43 -2 10 4 27 14 38 16 17 32 19 206 19 l188 0 0 -50z m-3367 -10
l658 0 -3 -32 -3 -33 -1215 -3 c-668 -2 -1292 0 -1386 3 l-171 7 1 27 1 26
365 6 c201 3 529 4 730 2 201 -1 661 -3 1023 -3z m-2263 -321 l0 -210 -37 3
-38 3 -3 217 c-2 193 -1 218 15 233 16 17 18 16 40 -9 22 -26 23 -32 23 -237z
m-303 -133 c18 -32 30 -62 27 -67 -6 -10 -1814 -13 -1814 -2 0 3 16 35 36 70
l35 63 842 -2 841 -3 33 -59z m5559 -1 l34 -60 -23 -7 c-41 -12 -1907 -9
-1907 3 0 6 14 38 31 70 l32 59 900 -2 900 -3 33 -60z m-2336 -10 l0 -65
-1390 0 -1390 0 0 58 c0 32 3 62 7 65 3 4 629 7 1390 7 l1383 0 0 -65z"/>
<path d="M8552 5158 c-7 -7 -12 -16 -12 -21 0 -5 7 -1 16 8 9 9 14 18 12 20
-2 3 -10 -1 -16 -7z"/>
<path d="M8524 5070 c0 -13 4 -16 10 -10 7 7 7 13 0 20 -6 6 -10 3 -10 -10z"/>
<path d="M8540 5045 c-7 -9 -10 -18 -6 -22 3 -3 6 -1 6 5 0 6 8 12 18 14 11 2
13 6 6 11 -7 4 -17 0 -24 -8z"/>
<path d="M1908 6408 l-3 -93 -40 -8 c-87 -18 -125 -57 -132 -134 -4 -39 0 -55
19 -82 39 -59 78 -74 196 -81 85 -4 107 -8 116 -23 8 -12 8 -22 0 -35 -10 -15
-33 -18 -163 -22 -136 -4 -154 -7 -167 -24 -18 -25 -18 -29 5 -57 16 -20 30
-24 95 -27 l76 -4 0 -54 0 -54 49 0 50 0 3 52 3 53 47 7 c113 16 169 115 119
208 -29 55 -88 80 -185 80 -94 0 -131 14 -131 50 l0 25 145 5 c152 5 190 15
190 50 0 42 -53 70 -136 70 l-54 0 0 95 0 95 -50 0 -49 0 -3 -92z"/>
<path d="M2250 5251 c0 -12 5 -21 10 -21 6 0 10 6 10 14 0 8 -4 18 -10 21 -5
3 -10 -3 -10 -14z"/>
<path d="M2420 5240 c0 -5 5 -10 11 -10 5 0 7 5 4 10 -3 6 -8 10 -11 10 -2 0
-4 -4 -4 -10z"/>
<path d="M2370 5236 c0 -2 7 -9 15 -16 12 -10 15 -10 15 4 0 9 -7 16 -15 16
-8 0 -15 -2 -15 -4z"/>
<path d="M2366 5203 c-11 -11 -6 -23 9 -23 8 0 15 4 15 9 0 13 -16 22 -24 14z"/>
<path d="M5022 4096 c-117 -38 -175 -141 -123 -220 21 -31 120 -98 133 -90 4
3 8 0 8 -6 0 -7 7 -10 15 -6 8 3 15 0 15 -7 0 -8 3 -8 8 -2 4 6 35 11 70 12
77 3 162 40 194 86 31 43 31 111 1 153 -37 52 -116 87 -203 91 -45 2 -92 -3
-118 -11z m136 -86 c24 -15 32 -27 32 -48 0 -36 -31 -65 -70 -65 -66 0 -94 73
-44 112 33 26 41 26 82 1z"/>
<path d="M6460 4070 c-13 -8 -12 -10 3 -10 9 0 17 5 17 10 0 12 -1 12 -20 0z"/>
<path d="M6380 3959 c0 -5 5 -7 10 -4 6 3 10 8 10 11 0 2 -4 4 -10 4 -5 0 -10
-5 -10 -11z"/>
<path d="M3720 3940 c0 -5 -7 -7 -15 -4 -8 4 -15 4 -15 1 0 -13 30 -14 40 -1
9 10 9 14 1 14 -6 0 -11 -4 -11 -10z"/>
<path d="M3730 3909 c0 -5 5 -7 10 -4 6 3 10 8 10 11 0 2 -4 4 -10 4 -5 0 -10
-5 -10 -11z"/>
<path d="M3776 3851 c-3 -5 3 -11 15 -14 16 -4 18 -3 8 9 -13 16 -16 17 -23 5z"/>
<path d="M6280 3850 c0 -5 5 -10 11 -10 5 0 7 5 4 10 -3 6 -8 10 -11 10 -2 0
-4 -4 -4 -10z"/>
<path d="M6296 3811 c-4 -7 -5 -15 -2 -18 9 -9 19 4 14 18 -4 11 -6 11 -12 0z"/>
<path d="M6326 3791 c-4 -7 -5 -15 -2 -18 9 -9 19 4 14 18 -4 11 -6 11 -12 0z"/>
<path d="M6270 3775 c0 -8 4 -15 10 -15 5 0 7 7 4 15 -4 8 -8 15 -10 15 -2 0
-4 -7 -4 -15z"/>
<path d="M3850 3720 c0 -5 5 -10 11 -10 5 0 7 5 4 10 -3 6 -8 10 -11 10 -2 0
-4 -4 -4 -10z"/>
<path d="M5016 3426 c-52 -19 -86 -45 -114 -87 -40 -58 -17 -139 51 -179 18
-10 37 -23 42 -28 6 -5 16 -7 23 -4 6 2 12 0 12 -5 0 -6 10 -9 23 -8 12 1 27
-1 32 -5 6 -4 44 -2 86 4 122 18 189 76 189 165 0 48 -41 101 -104 133 -53 28
-183 35 -240 14z m152 -92 c22 -15 30 -57 14 -80 -13 -20 -53 -35 -75 -28 -60
18 -75 69 -31 103 32 25 61 27 92 5z"/>
<path d="M6400 3406 c0 -2 7 -9 15 -16 9 -7 15 -8 15 -2 0 5 -7 12 -15 16 -8
3 -15 4 -15 2z"/>
<path d="M3730 3381 c0 -5 7 -11 14 -14 10 -4 13 -1 9 9 -6 15 -23 19 -23 5z"/>
<path d="M6340 3379 c0 -5 5 -7 10 -4 6 3 10 8 10 11 0 2 -4 4 -10 4 -5 0 -10
-5 -10 -11z"/>
<path d="M6425 3340 c3 -5 8 -10 11 -10 2 0 4 5 4 10 0 6 -5 10 -11 10 -5 0
-7 -4 -4 -10z"/>
<path d="M3761 3300 c-1 -21 16 -46 26 -37 4 5 3 11 -3 15 -6 4 -14 14 -17 22
-5 13 -5 13 -6 0z"/>
<path d="M3785 3240 c-3 -5 1 -10 9 -10 9 0 16 5 16 10 0 6 -4 10 -9 10 -6 0
-13 -4 -16 -10z"/>
<path d="M3820 3240 c0 -5 5 -10 10 -10 6 0 10 5 10 10 0 6 -4 10 -10 10 -5 0
-10 -4 -10 -10z"/>
<path d="M3810 3209 c0 -5 5 -7 10 -4 6 3 10 8 10 11 0 2 -4 4 -10 4 -5 0 -10
-5 -10 -11z"/>
<path d="M3840 3210 c0 -5 5 -10 10 -10 6 0 10 5 10 10 0 6 -4 10 -10 10 -5 0
-10 -4 -10 -10z"/>
<path d="M3828 3143 c-5 -23 20 -63 38 -63 8 0 14 7 14 15 0 8 7 15 15 15 8 0
15 5 15 10 0 6 -7 10 -15 10 -8 0 -15 7 -15 15 0 22 -48 20 -52 -2z m38 -8
c15 -15 11 -35 -7 -35 -6 0 -8 4 -4 9 3 5 1 12 -5 16 -11 7 -14 25 -4 25 3 0
12 -7 20 -15z"/>
<path d="M3900 3150 c0 -5 5 -10 11 -10 5 0 7 5 4 10 -3 6 -8 10 -11 10 -2 0
-4 -4 -4 -10z"/>
<path d="M3960 3119 c0 -5 5 -7 10 -4 6 3 10 8 10 11 0 2 -4 4 -10 4 -5 0 -10
-5 -10 -11z"/>
<path d="M6200 3119 c0 -5 5 -7 10 -4 6 3 10 8 10 11 0 2 -4 4 -10 4 -5 0 -10
-5 -10 -11z"/>
<path d="M6215 3099 c-9 -14 -2 -20 14 -10 8 6 9 11 3 15 -6 3 -14 1 -17 -5z"/>
<path d="M6180 3080 c0 -5 5 -10 10 -10 6 0 10 5 10 10 0 6 -4 10 -10 10 -5 0
-10 -4 -10 -10z"/>
<path d="M3363 6568 c-6 -7 -14 -29 -18 -48 -14 -69 -40 -98 -101 -111 -93
-21 -92 -58 1 -74 56 -10 82 -38 95 -101 11 -50 14 -54 40 -54 29 0 40 18 40
67 0 36 40 72 98 86 28 7 57 18 62 23 17 17 0 42 -33 49 -99 20 -112 32 -132
120 -12 51 -32 68 -52 43z"/>
<path d="M1016 6094 c-17 -45 7 -81 48 -70 51 13 40 86 -13 86 -17 0 -31 -6
-35 -16z"/>
<path d="M7181 5198 c-5 -13 -14 -37 -21 -55 -17 -45 -51 -73 -106 -87 -86
-22 -84 -62 4 -85 62 -15 88 -40 102 -94 18 -68 18 -69 47 -65 23 2 29 10 40
48 22 78 32 89 92 106 68 20 90 37 75 61 -6 10 -26 21 -45 25 -89 22 -103 35
-124 118 -8 34 -16 46 -33 48 -15 2 -25 -4 -31 -20z"/>
<path d="M2985 5158 c-2 -7 -9 -30 -15 -50 -10 -33 -16 -38 -41 -38 -40 0 -69
-16 -69 -39 0 -23 19 -31 70 -31 35 0 38 -2 44 -35 8 -41 19 -49 52 -41 20 5
24 13 24 41 0 33 2 35 34 35 19 0 44 8 57 19 20 16 21 21 10 35 -8 10 -29 16
-51 16 -35 0 -39 3 -45 33 -12 61 -16 67 -41 67 -14 0 -26 -6 -29 -12z"/>
<path d="M1026 5141 c-23 -25 -13 -59 20 -67 47 -12 72 37 36 69 -24 22 -35
21 -56 -2z"/>
<path d="M7542 4848 c-19 -19 -14 -45 10 -62 17 -12 49 -16 135 -16 135 0 163
8 163 49 0 17 -6 31 -16 35 -30 12 -279 7 -292 -6z"/>
<path d="M8996 4841 c-22 -24 -13 -59 17 -66 12 -4 53 -5 91 -3 56 2 71 7 82
23 12 18 11 24 -2 43 -13 19 -24 22 -93 22 -64 0 -81 -3 -95 -19z"/>
<path d="M1866 4037 c-24 -17 -13 -55 17 -62 12 -3 69 -5 126 -3 86 2 106 6
115 21 8 12 8 22 0 35 -9 14 -29 17 -125 20 -84 2 -119 -1 -133 -11z"/>
<path d="M1249 2084 c-9 -11 -10 -20 -2 -32 9 -16 290 -17 4007 -20 2744 -1
4003 1 4017 8 24 14 24 36 0 50 -14 7 -1280 10 -4014 10 -3632 0 -3996 -1
-4008 -16z"/>
</g>
</svg>
